<?xml version="1.0" standalone="no"?>
<!DOCTYPE svg PUBLIC "-//W3C//DTD SVG 20010904//EN"
 "http://www.w3.org/TR/2001/REC-SVG-20010904/DTD/svg10.dtd">
<svg version="1.0" xmlns="http://www.w3.org/2000/svg"
 width="404.000000pt" height="125.000000pt" viewBox="0 0 404.000000 125.000000"
 preserveAspectRatio="xMidYMid meet">

<g transform="translate(0.000000,125.000000) scale(0.100000,-0.100000)"
fill="#000000" stroke="none">
<path d="M3433 1200 c-29 -12 -43 -40 -43 -88 0 -56 26 -86 74 -84 42 2 59 9
51 23 -4 5 -14 5 -26 -2 -27 -14 -54 -4 -67 27 -15 31 -15 47 -1 78 14 30 41
38 68 20 14 -10 22 -11 26 -3 15 24 -44 45 -82 29z"/>
<path d="M3587 1190 c-52 -41 -43 -139 14 -159 60 -21 99 12 99 85 0 45 -4 56
-26 73 -33 26 -54 26 -87 1z m83 -36 c15 -38 12 -69 -9 -95 -41 -51 -99 24
-72 94 15 38 67 39 81 1z"/>
<path d="M3760 1115 c0 -50 4 -85 10 -85 6 0 10 27 10 60 0 33 4 60 8 60 4 0
16 -22 26 -50 10 -27 23 -50 30 -50 7 0 20 23 30 50 10 28 22 50 27 50 5 0 9
-27 9 -60 0 -41 4 -60 13 -60 9 0 11 22 9 85 -3 74 -6 85 -21 85 -13 0 -24
-16 -38 -51 -10 -28 -23 -51 -27 -52 -5 -1 -18 22 -29 51 -14 37 -25 52 -38
52 -17 0 -19 -9 -19 -85z"/>
<path d="M42 778 l3 -403 65 -18 c86 -24 241 -27 291 -5 61 26 116 84 141 146
19 48 22 76 22 177 0 134 -15 185 -70 237 -63 59 -170 75 -251 38 l-43 -19 0
124 0 125 -80 0 -80 0 2 -402z m325 47 c33 -38 46 -99 41 -196 -9 -149 -63
-207 -167 -179 l-41 11 0 172 c0 180 2 192 45 216 32 18 97 6 122 -24z"/>
<path d="M3322 1039 c2 -6 8 -10 13 -10 5 0 11 4 13 10 2 6 -4 11 -13 11 -9 0
-15 -5 -13 -11z"/>
<path d="M1943 952 c-78 -28 -118 -64 -155 -139 -28 -58 -33 -78 -36 -163 -8
-189 53 -293 186 -315 60 -10 133 10 168 46 35 36 40 36 48 -1 5 -30 6 -30 72
-30 l67 0 -7 61 c-3 34 -6 165 -6 290 l0 228 -52 17 c-83 25 -222 28 -285 6z
m155 -98 c22 -6 22 -9 22 -176 l0 -170 -29 -29 c-23 -23 -38 -29 -71 -29 -57
0 -96 39 -105 104 -11 72 -1 196 19 234 30 57 96 84 164 66z"/>
<path d="M2572 949 c-24 -12 -49 -30 -55 -40 -16 -26 -24 -24 -32 11 -7 30 -7
30 -72 30 l-66 0 7 -52 c3 -29 6 -164 6 -300 l0 -248 79 0 80 0 3 226 3 226
28 24 c17 15 41 24 60 24 72 0 77 -19 77 -279 l0 -221 80 0 80 0 0 194 c0 106
3 207 6 224 12 58 64 92 120 78 46 -12 54 -52 54 -286 l0 -210 81 0 80 0 -3
248 c-3 233 -4 249 -25 288 -53 99 -215 113 -306 26 l-28 -26 -22 27 c-47 58
-157 74 -235 36z"/>
<path d="M3663 956 c-64 -21 -110 -54 -141 -99 -50 -74 -57 -103 -57 -237 0
-120 1 -127 29 -178 65 -116 223 -146 320 -62 18 17 36 30 39 30 2 0 7 -13 11
-30 5 -30 6 -30 72 -30 l67 0 -6 68 c-4 37 -7 167 -7 289 l0 222 -52 17 c-73
22 -222 28 -275 10z m145 -102 c22 -6 22 -8 22 -179 l0 -173 -31 -26 c-57 -48
-136 -29 -165 40 -18 43 -18 196 0 247 29 81 90 113 174 91z"/>
<path d="M610 758 c0 -286 12 -338 84 -392 20 -15 46 -22 100 -24 80 -4 117 8
169 56 26 25 27 25 27 5 0 -47 9 -53 77 -53 l66 0 -7 61 c-3 34 -6 169 -6 300
l0 239 -80 0 -80 0 0 -207 c0 -188 -2 -211 -20 -240 -33 -55 -123 -64 -149
-14 -7 12 -11 104 -11 240 l0 221 -85 0 -85 0 0 -192z"/>
<path d="M1200 748 c0 -112 5 -220 10 -240 12 -43 66 -93 109 -103 17 -4 31
-9 31 -11 0 -3 -14 -17 -30 -31 -52 -44 -84 -110 -85 -174 0 -94 55 -146 164
-156 125 -12 213 33 261 131 39 79 50 200 50 539 l0 247 -85 0 -85 0 0 -202 0
-202 -27 -28 c-21 -22 -36 -28 -67 -28 -81 0 -86 15 -86 259 l0 201 -80 0 -80
0 0 -202z m348 -437 c-6 -114 -19 -143 -71 -160 -65 -22 -114 19 -104 86 9 52
44 100 100 138 79 53 80 51 75 -64z"/>
<path d="M3250 650 l0 -300 85 0 85 0 0 300 0 300 -85 0 -85 0 0 -300z"/>
</g>
</svg>
