<?xml version="1.0" standalone="no"?>
<!DOCTYPE svg PUBLIC "-//W3C//DTD SVG 20010904//EN"
 "http://www.w3.org/TR/2001/REC-SVG-20010904/DTD/svg10.dtd">
<svg version="1.0" xmlns="http://www.w3.org/2000/svg"
 width="342.000000pt" height="87.000000pt" viewBox="0 0 342.000000 87.000000"
 preserveAspectRatio="xMidYMid meet">

<g transform="translate(0.000000,87.000000) scale(0.100000,-0.100000)"
fill="#000000" stroke="none">
<path d="M1036 724 c-8 -20 -8 -518 0 -538 4 -12 20 -16 55 -16 l49 0 0 53 c0
40 5 58 18 70 10 10 21 17 24 17 2 0 26 -31 53 -70 l48 -70 53 0 c29 0 55 4
58 9 3 5 -27 55 -68 112 l-74 104 70 72 c38 40 67 77 63 83 -3 5 -29 10 -58
10 -50 0 -53 -2 -119 -67 l-68 -67 0 157 0 157 -49 0 c-35 0 -51 -4 -55 -16z"/>
<path d="M130 450 l0 -280 123 0 c134 0 211 16 242 50 10 11 21 17 26 15 4 -3
24 27 43 66 33 65 36 80 36 153 0 100 -29 168 -93 220 -61 48 -95 56 -243 56
l-134 0 0 -280z m287 157 c17 -11 39 -34 48 -49 19 -33 31 -128 20 -155 -4
-10 -9 -24 -11 -32 -5 -27 -40 -66 -75 -84 -24 -12 -52 -17 -99 -15 l-65 3 -3
174 c-2 133 1 177 10 183 23 16 140 -1 175 -25z"/>
<path d="M774 570 c-60 -14 -102 -48 -129 -105 -69 -148 22 -304 178 -305 64
0 107 19 145 66 39 47 40 57 7 72 -37 17 -62 15 -77 -6 -35 -50 -111 -52 -148
-5 -11 14 -20 30 -20 34 0 5 58 9 129 9 149 0 156 4 146 73 -18 117 -123 193
-231 167z m84 -100 c19 -12 32 -28 32 -40 0 -18 -6 -20 -73 -20 -41 0 -77 3
-80 6 -11 11 12 43 41 58 35 20 41 20 80 -4z"/>
<path d="M1520 564 c-80 -26 -126 -84 -137 -172 -15 -129 73 -231 199 -232
124 0 198 78 198 210 0 114 -63 187 -175 203 -24 4 -58 0 -85 -9z m118 -111
c40 -25 54 -93 29 -143 -18 -37 -71 -60 -110 -49 -47 13 -67 43 -67 101 0 61
13 86 53 103 34 15 58 12 95 -12z"/>
<path d="M3208 570 c-15 -4 -43 -18 -62 -29 -54 -34 -74 -111 -29 -111 10 0
28 -3 40 -6 17 -5 25 0 34 19 22 50 96 59 120 16 16 -31 -4 -46 -74 -53 -81
-10 -122 -30 -141 -71 -26 -54 -16 -111 27 -150 29 -26 111 -32 160 -11 22 9
39 11 42 5 4 -5 26 -9 51 -9 l44 0 0 145 c0 166 -9 201 -61 233 -40 24 -112
35 -151 22z m107 -257 c-11 -47 -34 -64 -79 -61 -34 3 -42 7 -44 27 -5 30 8
42 55 51 71 14 76 13 68 -17z"/>
<path d="M1958 552 c-30 -16 -38 -17 -42 -6 -3 9 -22 14 -51 14 l-45 0 0 -195
0 -195 50 0 50 0 0 116 c0 114 0 116 29 145 22 21 39 29 66 29 l36 0 -3 53
c-3 47 -5 52 -28 55 -14 1 -42 -6 -62 -16z"/>
<path d="M2598 554 c-16 -8 -28 -10 -28 -4 0 5 -22 10 -50 10 l-50 0 0 -195 0
-195 50 0 50 0 0 145 0 144 40 11 c45 12 72 3 90 -30 5 -10 10 -75 10 -144 l0
-126 50 0 50 0 0 128 c0 114 2 131 20 149 30 33 59 38 89 15 26 -19 26 -21 29
-156 l3 -136 49 0 50 0 0 145 c0 166 -10 203 -62 235 -48 29 -124 27 -168 -5
l-33 -24 -29 24 c-23 20 -41 25 -81 25 -29 -1 -64 -8 -79 -16z"/>
<path d="M2084 546 c-3 -9 -4 -78 -2 -155 3 -122 6 -143 24 -168 42 -57 120
-77 189 -49 21 9 37 11 40 5 4 -5 26 -9 51 -9 l44 0 0 195 0 195 -49 0 -49 0
-3 -129 c-4 -146 -15 -171 -73 -171 -58 0 -61 7 -66 157 l-5 138 -48 3 c-35 2
-49 -1 -53 -12z"/>
</g>
</svg>
