<?xml version="1.0" standalone="no"?>
<!DOCTYPE svg PUBLIC "-//W3C//DTD SVG 20010904//EN"
 "http://www.w3.org/TR/2001/REC-SVG-20010904/DTD/svg10.dtd">
<svg version="1.0" xmlns="http://www.w3.org/2000/svg"
 width="1280.000000pt" height="512.000000pt" viewBox="0 0 1280.000000 512.000000"
 preserveAspectRatio="xMidYMid meet">

<g transform="translate(0.000000,512.000000) scale(0.100000,-0.100000)"
fill="#000000" stroke="none">
<path d="M0 2560 l0 -2560 6400 0 6400 0 0 2560 0 2560 -6400 0 -6400 0 0
-2560z m6940 2295 c261 -6 623 -26 910 -50 1662 -142 3072 -538 3907 -1097
216 -144 431 -340 553 -502 76 -103 161 -268 196 -381 26 -84 28 -102 28 -265
0 -163 -2 -181 -28 -265 -35 -113 -120 -278 -196 -381 -160 -213 -431 -439
-753 -628 -137 -81 -473 -242 -652 -314 -757 -303 -1743 -525 -2830 -636 -851
-87 -1937 -103 -2850 -41 -2078 141 -3790 670 -4539 1403 -207 202 -327 386
-393 599 -25 81 -27 101 -27 263 0 162 2 182 27 263 112 363 417 692 919 991
1039 618 2795 1002 4788 1046 325 7 420 6 940 -5z"/>
<path d="M11360 3567 c-49 -16 -123 -93 -138 -143 -26 -90 -10 -180 46 -244
114 -134 323 -112 407 42 37 68 40 161 8 224 -28 53 -92 110 -140 123 -48 14
-137 12 -183 -2z m190 -52 c60 -31 110 -113 110 -177 -1 -116 -128 -214 -243
-188 -121 27 -191 160 -143 273 16 40 77 95 114 103 15 3 32 7 37 9 17 7 99
-6 125 -20z"/>
<path d="M11370 3345 c0 -138 1 -145 20 -145 17 0 20 7 20 50 0 50 0 50 33 50
28 0 35 -6 59 -50 19 -34 34 -50 48 -50 26 0 25 4 -5 56 l-25 43 25 37 c28 41
31 61 13 99 -17 38 -58 55 -128 55 l-60 0 0 -145z m138 83 c7 -7 12 -24 12
-38 0 -37 -18 -50 -67 -50 l-43 0 0 50 0 50 43 0 c24 0 48 -5 55 -12z"/>
<path d="M1296 3443 c21 -69 21 -1697 0 -1766 l-14 -47 625 0 624 0 -8 23
c-11 29 -11 1785 0 1815 l8 22 -624 0 -625 0 14 -47z"/>
<path d="M3097 3458 c4 -18 8 -422 8 -898 0 -476 -4 -880 -8 -897 l-9 -33 572
0 c541 0 572 1 564 18 -5 9 -10 190 -12 402 l-3 385 38 -55 c130 -185 379
-562 403 -610 15 -30 33 -75 39 -98 l12 -42 684 0 c377 0 685 4 685 8 0 5 -12
19 -26 33 -44 40 -116 142 -428 607 -262 390 -296 445 -284 460 7 9 115 138
239 287 235 280 313 366 388 428 l45 37 -598 -2 -598 -3 -18 -46 c-24 -65 -87
-152 -350 -488 l-231 -294 3 399 c2 219 7 407 12 417 8 16 -22 17 -564 17
l-572 0 9 -32z"/>
<path d="M6292 3468 c10 -18 13 -204 13 -898 0 -481 -4 -890 -8 -907 l-9 -33
1111 0 1111 0 0 256 0 256 -22 -8 c-13 -4 -260 -10 -550 -11 l-528 -4 0 126 0
125 450 0 450 0 0 190 0 190 -450 0 -450 0 0 125 0 126 533 -3 c292 -2 540 -7
550 -12 16 -8 17 7 17 248 l0 256 -1115 0 -1116 0 13 -22z"/>
<path d="M9347 3438 c-9 -62 -621 -1703 -656 -1760 l-30 -48 474 0 475 0 0 33
c0 38 15 93 55 196 l27 71 346 -2 346 -3 43 -100 c23 -55 45 -121 49 -148 l7
-47 598 0 599 0 -30 47 c-16 26 -57 114 -89 197 -474 1202 -604 1537 -608
1569 l-6 37 -797 0 -797 0 -6 -42z m704 -645 c12 -37 57 -157 100 -267 44
-111 79 -204 79 -208 0 -5 -88 -8 -195 -8 -142 0 -195 3 -195 12 0 6 38 114
84 239 47 124 88 243 91 263 4 20 9 36 10 36 2 0 13 -30 26 -67z"/>
</g>
</svg>
