<?xml version="1.0" standalone="no"?>
<!DOCTYPE svg PUBLIC "-//W3C//DTD SVG 20010904//EN"
 "http://www.w3.org/TR/2001/REC-SVG-20010904/DTD/svg10.dtd">
<svg version="1.0" xmlns="http://www.w3.org/2000/svg"
 width="942.000000pt" height="265.000000pt" viewBox="0 0 942.000000 265.000000"
 preserveAspectRatio="xMidYMid meet">

<g transform="translate(0.000000,265.000000) scale(0.100000,-0.100000)"
fill="#000000" stroke="none">
<path d="M2355 2629 c-104 -16 -181 -47 -234 -95 -76 -68 -85 -95 -91 -264
l-5 -145 -62 -3 -63 -3 0 -164 0 -165 65 0 65 0 0 -865 0 -865 300 0 300 0 0
865 0 865 75 0 75 0 0 165 0 165 -130 0 -130 0 0 64 c0 55 4 69 26 95 25 30
27 30 127 33 l102 3 3 158 3 157 -109 0 c-60 0 -142 2 -183 4 -41 3 -101 1
-134 -5z"/>
<path d="M95 2236 c-51 -31 -79 -78 -79 -136 -2 -177 241 -235 310 -73 46 108
-22 222 -138 230 -43 3 -60 -1 -93 -21z"/>
<path d="M5444 2191 c-98 -24 -207 -115 -269 -225 -20 -36 -39 -66 -42 -66 -5
0 -1 62 13 203 l6 57 -306 0 -306 0 0 -1050 0 -1050 305 0 305 0 0 569 c0 533
1 573 19 631 24 78 63 134 106 155 34 15 96 29 188 40 l47 6 0 370 c0 410 6
377 -66 360z"/>
<path d="M6550 2190 c-103 -22 -217 -100 -278 -192 -13 -21 -27 -38 -29 -38
-5 0 3 89 13 163 l6 37 -306 0 -306 0 0 -1050 0 -1050 295 0 295 0 0 838 c0
822 0 838 20 870 27 45 82 68 122 51 60 -25 58 12 58 -914 l0 -845 300 0 300
0 0 844 0 843 22 28 c47 61 118 65 155 8 17 -25 18 -78 21 -875 l2 -848 301 0
300 0 -3 883 c-4 959 -2 925 -60 1045 -47 98 -169 184 -292 204 -161 27 -343
-55 -426 -191 -14 -22 -27 -41 -30 -41 -3 0 -19 22 -37 49 -67 103 -196 177
-323 185 -41 3 -95 1 -120 -4z"/>
<path d="M3060 2178 c1 -17 89 -70 102 -62 7 5 8 2 3 -6 -6 -10 -4 -12 9 -7 9
4 15 3 11 -3 -3 -5 36 -34 87 -65 51 -31 120 -74 153 -95 33 -22 72 -46 88
-55 l27 -16 0 161 0 160 -240 0 c-186 0 -240 -3 -240 -12z"/>
<path d="M8541 2179 c-204 -40 -388 -156 -454 -285 -43 -85 -67 -229 -67 -403
l0 -151 286 2 287 3 -2 168 c-3 200 3 248 35 282 26 28 88 35 116 13 44 -36
48 -56 48 -229 0 -237 35 -202 -385 -390 -225 -102 -243 -112 -292 -164 -82
-86 -88 -116 -88 -430 0 -247 1 -263 23 -324 42 -115 95 -173 202 -220 100
-44 274 -44 376 -1 53 23 119 82 144 129 l19 36 1 -77 0 -78 306 0 306 0 -5
843 c-4 726 -7 849 -20 896 -58 199 -182 308 -415 367 -79 20 -117 24 -236 23
-77 -1 -161 -5 -185 -10z m249 -1443 c0 -290 -1 -304 -20 -329 -22 -28 -74
-43 -109 -32 -30 9 -58 71 -66 141 -11 98 11 319 37 371 22 44 127 153 147
153 8 0 11 -94 11 -304z"/>
<path d="M3610 2017 l0 -157 137 0 136 0 -19 23 c-11 12 -65 74 -119 137 -54
63 -106 124 -117 135 -18 19 -18 16 -18 -138z"/>
<path d="M3610 1641 l0 -139 30 -30 30 -30 0 -141 0 -141 341 0 342 0 -7 72
c-13 137 -40 214 -106 304 -104 139 -288 220 -542 238 l-88 6 0 -139z"/>
<path d="M3325 1759 c-115 -24 -147 -34 -221 -69 -185 -89 -286 -237 -301
-441 l-6 -89 337 0 336 0 0 140 c0 77 0 142 0 145 0 9 36 41 53 48 15 6 17 24
17 142 l0 135 -87 -1 c-49 -1 -106 -5 -128 -10z"/>
<path d="M1070 1734 c-96 -16 -145 -31 -215 -65 -188 -90 -308 -235 -364 -439
-20 -71 -21 -99 -21 -622 l0 -548 135 0 134 0 3 548 c3 546 3 547 26 602 50
117 138 202 249 241 86 30 218 24 295 -14 88 -43 152 -107 195 -195 l38 -76 5
-550 5 -551 135 0 135 0 3 525 c2 453 0 535 -14 600 -46 213 -178 384 -367
474 -51 24 -113 49 -138 55 -53 12 -201 22 -239 15z"/>
<path d="M40 895 l0 -836 138 3 137 3 3 833 2 832 -140 0 -140 0 0 -835z"/>
<path d="M3670 739 l0 -351 -30 -28 -30 -28 0 -138 0 -137 108 6 c315 18 529
161 608 407 14 45 18 104 22 338 l4 282 -341 0 -341 0 0 -351z"/>
</g>
</svg>
